<?xml version="1.0" encoding="UTF-8"?>
<svg color-interpolation-filters="sRGB" fill="none" fill-rule="evenodd" font-size="12" overflow="visible" stroke-linecap="square" stroke-miterlimit="3" viewBox="0 0 595 842" xmlns="http://www.w3.org/2000/svg" xmlns:v="http://schemas.microsoft.com/visio/2003/SVGExtensions/" xmlns:xlink="http://www.w3.org/1999/xlink">
<v:documentProperties v:langID="1033" v:metric="true" v:viewMarkup="false">
<v:userDefs>
<v:ud v:nameU="msvNoAutoConnect" v:val="VT0(1):26"/>
</v:userDefs>
</v:documentProperties>
<style>.st1{fill:#fff;stroke:#000;stroke-linecap:round;stroke-linejoin:round;stroke-width:.24}.st3{fill:#000;font-family:Calibri;font-size:1.00001em}.st4{marker-end:url(#a);stroke:#000;stroke-linecap:round;stroke-linejoin:round;stroke-width:2}</style>
<defs>
<path id="b" d="m2 1-2-1 2-1v2"/>
<marker id="a" fill="#000" overflow="visible" stroke="#000" stroke-width="0" orient="auto" refX="-5" v:arrowSize="2" v:arrowType="4" v:setback="5">
<use transform="scale(-2.26)" xlink:href="#b"/>
</marker>
</defs>
<g v:groupContext="foregroundPage" v:index="1" v:mID="0">
<v:pageProperties v:drawingScale="0" v:drawingUnits="24" v:pageScale="0" v:shadowOffsetX="9" v:shadowOffsetY="-9"/>
<v:layer v:index="0" v:name="Connector"/>
<v:layer v:index="1" v:name="Flowchart"/>
<g transform="translate(225 -710)" v:groupContext="shape" v:mID="1">
<v:userDefs>
<v:ud v:nameU="visVersion" v:val="VT0(15):26"/>
</v:userDefs>
<v:textBlock v:margins="rect(4,4,4,4)" v:tabSpace="43"/>
<v:textRect width="105" height="55" cx="53" cy="814"/>
<path class="st1" d="M0 787h105v55H0z"/>
<text x="34" y="819" fill="#000" font-family="Calibri" font-size="1em" v:langID="1033">
<v:paragraph v:horizAlign="1"/>
<v:tabList/>
LXFML</text>
</g>
<g transform="translate(0 -619)" v:groupContext="shape" v:mID="2">
<v:userDefs>
<v:ud v:nameU="visVersion" v:val="VT0(15):26"/>
</v:userDefs>
<v:textBlock v:margins="rect(4,4,4,4)" v:tabSpace="43"/>
<v:textRect width="105" height="55" cx="53" cy="814"/>
<path class="st1" d="M0 787h105v55H0z"/>
<text class="st3" x="40" y="818" v:langID="1033">
<v:paragraph v:horizAlign="1"/>
<v:tabList/>
Meta</text>
</g>
<g transform="translate(150 -619)" v:groupContext="shape" v:mID="3">
<v:userDefs>
<v:ud v:nameU="visVersion" v:val="VT0(15):26"/>
</v:userDefs>
<v:textBlock v:margins="rect(4,4,4,4)" v:tabSpace="43"/>
<v:textRect width="105" height="55" cx="53" cy="814"/>
<path class="st1" d="M0 787h105v55H0z"/>
<text class="st3" x="31" y="818" v:langID="1033">
<v:paragraph v:horizAlign="1"/>
<v:tabList/>
Cameras</text>
</g>
<g transform="translate(301 -619)" v:groupContext="shape" v:mID="4">
<v:userDefs>
<v:ud v:nameU="visVersion" v:val="VT0(15):26"/>
</v:userDefs>
<v:textBlock v:margins="rect(4,4,4,4)" v:tabSpace="43"/>
<v:textRect width="105" height="55" cx="53" cy="814"/>
<path class="st1" d="M0 787h105v55H0z"/>
<text class="st3" x="38" y="818" v:langID="1033">
<v:paragraph v:horizAlign="1"/>
<v:tabList/>
Scene</text>
</g>
<g transform="translate(484 -619)" v:groupContext="shape" v:mID="5">
<v:userDefs>
<v:ud v:nameU="visVersion" v:val="VT0(15):26"/>
</v:userDefs>
<v:textBlock v:margins="rect(4,4,4,4)" v:tabSpace="43"/>
<v:textRect width="105" height="55" cx="53" cy="814"/>
<path class="st1" d="M0 787h105v55H0z"/>
<text class="st3" x="4" y="818" v:langID="1033">
<v:paragraph v:horizAlign="1"/>
<v:tabList/>
BuildingInstructions</text>
</g>
<path class="st4" transform="translate(278 -710)" d="m0 842v11h-225v17" v:groupContext="shape" v:layerMember="0" v:mID="6"/>
<path class="st4" transform="translate(278 -710)" d="m0 842v11h-75v17" v:groupContext="shape" v:layerMember="0" v:mID="8"/>
<path class="st4" transform="translate(278 -710)" d="m0 842v11h75v17" v:groupContext="shape" v:layerMember="0" v:mID="9"/>
<path class="st4" transform="translate(278 -710)" d="m0 842v11h259v17" v:groupContext="shape" v:layerMember="0" v:mID="10"/>
<g transform="translate(0 -536)" v:groupContext="shape" v:mID="12">
<v:userDefs>
<v:ud v:nameU="visVersion" v:val="VT0(15):26"/>
</v:userDefs>
<v:textBlock v:margins="rect(4,4,4,4)" v:tabSpace="43"/>
<v:textRect width="105" height="55" cx="53" cy="814"/>
<path class="st1" d="M0 787h105v55H0z"/>
<text class="st3" x="35" y="818" v:langID="1033">
<v:paragraph v:horizAlign="1"/>
<v:tabList/>
? Any ?</text>
</g>
<g transform="translate(150 -536)" v:groupContext="shape" v:mID="13">
<v:userDefs>
<v:ud v:nameU="visVersion" v:val="VT0(15):26"/>
</v:userDefs>
<v:textBlock v:margins="rect(4,4,4,4)" v:tabSpace="43"/>
<v:textRect width="105" height="55" cx="53" cy="814"/>
<path class="st1" d="M0 787h105v55H0z"/>
<text class="st3" x="34" y="818" v:langID="1033">
<v:paragraph v:horizAlign="1"/>
<v:tabList/>
Camera</text>
</g>
<g transform="translate(301 -536)" v:groupContext="shape" v:mID="14">
<v:userDefs>
<v:ud v:nameU="visVersion" v:val="VT0(15):26"/>
</v:userDefs>
<v:textBlock v:margins="rect(4,4,4,4)" v:tabSpace="43"/>
<v:textRect width="105" height="55" cx="53" cy="814"/>
<path class="st1" d="M0 787h105v55H0z"/>
<text class="st3" x="37" y="818" v:langID="1033">
<v:paragraph v:horizAlign="1"/>
<v:tabList/>
Model</text>
</g>
<g transform="translate(484 -536)" v:groupContext="shape" v:mID="15">
<v:userDefs>
<v:ud v:nameU="visVersion" v:val="VT0(15):26"/>
</v:userDefs>
<v:textBlock v:margins="rect(4,4,4,4)" v:tabSpace="43"/>
<v:textRect width="105" height="55" cx="53" cy="814"/>
<path class="st1" d="M0 787h105v55H0z"/>
<text class="st3" x="6" y="818" v:langID="1033">
<v:paragraph v:horizAlign="1"/>
<v:tabList/>
BuildingInstruction</text>
</g>
<path class="st4" transform="translate(46 -619)" d="m7 842v18" v:groupContext="shape" v:layerMember="0" v:mID="16"/>
<path class="st4" transform="translate(195 -619)" d="m7 842v18" v:groupContext="shape" v:layerMember="0" v:mID="17"/>
<path class="st4" transform="translate(346 -619)" d="m7 842v18" v:groupContext="shape" v:layerMember="0" v:mID="18"/>
<path class="st4" transform="translate(530 -619)" d="m7 842v18" v:groupContext="shape" v:layerMember="0" v:mID="19"/>
<g transform="translate(241 -453)" v:groupContext="shape" v:mID="20">
<v:userDefs>
<v:ud v:nameU="visVersion" v:val="VT0(15):26"/>
</v:userDefs>
<v:textBlock v:margins="rect(4,4,4,4)" v:tabSpace="43"/>
<v:textRect width="105" height="55" cx="53" cy="814"/>
<path class="st1" d="M0 787h105v55H0z"/>
<text class="st3" x="37" y="818" v:langID="1033">
<v:paragraph v:horizAlign="1"/>
<v:tabList/>
Group</text>
</g>
<g transform="translate(362 -453)" v:groupContext="shape" v:mID="21">
<v:userDefs>
<v:ud v:nameU="visVersion" v:val="VT0(15):26"/>
</v:userDefs>
<v:textBlock v:margins="rect(4,4,4,4)" v:tabSpace="43"/>
<v:textRect width="105" height="55" cx="53" cy="814"/>
<path class="st1" d="M0 787h105v55H0z"/>
<text class="st3" x="41" y="818" v:langID="1033">
<v:paragraph v:horizAlign="1"/>
<v:tabList/>
Joint</text>
</g>
<path class="st4" transform="translate(353 -536)" d="m0 842v11h-60v7" v:groupContext="shape" v:layerMember="0" v:mID="22"/>
<path class="st4" transform="translate(353 -536)" d="m0 842v11h62v7" v:groupContext="shape" v:layerMember="0" v:mID="23"/>
<g transform="translate(241 -371)" v:groupContext="shape" v:mID="24">
<v:userDefs>
<v:ud v:nameU="visVersion" v:val="VT0(15):26"/>
</v:userDefs>
<v:textBlock v:margins="rect(4,4,4,4)" v:tabSpace="43"/>
<v:textRect width="105" height="55" cx="53" cy="814"/>
<path class="st1" d="M0 787h105v55H0z"/>
<text class="st3" x="43" y="818" v:langID="1033">
<v:paragraph v:horizAlign="1"/>
<v:tabList/>
Part</text>
</g>
<path class="st4" transform="translate(286 -453)" d="m7 842v18" v:groupContext="shape" v:layerMember="0" v:mID="25"/>
<g transform="translate(177 -292)" v:groupContext="shape" v:mID="26">
<v:userDefs>
<v:ud v:nameU="visVersion" v:val="VT0(15):26"/>
</v:userDefs>
<v:textBlock v:margins="rect(4,4,4,4)" v:tabSpace="43"/>
<v:textRect width="105" height="55" cx="53" cy="814"/>
<path class="st1" d="M0 787h105v55H0z"/>
<text class="st3" x="23" y="818" v:langID="1033">
<v:paragraph v:horizAlign="1"/>
<v:tabList/>
SubMaterial</text>
</g>
<g transform="translate(304 -292)" v:groupContext="shape" v:mID="27">
<v:userDefs>
<v:ud v:nameU="visVersion" v:val="VT0(15):26"/>
</v:userDefs>
<v:textBlock v:margins="rect(4,4,4,4)" v:tabSpace="43"/>
<v:textRect width="105" height="55" cx="53" cy="814"/>
<path class="st1" d="M0 787h105v55H0z"/>
<text class="st3" x="26" y="818" v:langID="1033">
<v:paragraph v:horizAlign="1"/>
<v:tabList/>
Decoration</text>
</g>
<path class="st4" transform="translate(293 -371)" d="m0 842v11h-63v4" v:groupContext="shape" v:layerMember="0" v:mID="28"/>
<path class="st4" transform="translate(293 -371)" d="m0 842v11h63v4" v:groupContext="shape" v:layerMember="0" v:mID="29"/>
<g transform="translate(484 -453)" v:groupContext="shape" v:mID="30">
<v:userDefs>
<v:ud v:nameU="visVersion" v:val="VT0(15):26"/>
</v:userDefs>
<v:textBlock v:margins="rect(4,4,4,4)" v:tabSpace="43"/>
<v:textRect width="105" height="55" cx="53" cy="814"/>
<path class="st1" d="M0 787h105v55H0z"/>
<text class="st3" x="42" y="818" v:langID="1033">
<v:paragraph v:horizAlign="1"/>
<v:tabList/>
Step</text>
</g>
<path class="st4" transform="translate(530 -536)" d="m7 842v18" v:groupContext="shape" v:layerMember="0" v:mID="31"/>
<g transform="translate(484 -371)" v:groupContext="shape" v:mID="32">
<v:userDefs>
<v:ud v:nameU="visVersion" v:val="VT0(15):26"/>
</v:userDefs>
<v:textBlock v:margins="rect(4,4,4,4)" v:tabSpace="43"/>
<v:textRect width="105" height="55" cx="53" cy="814"/>
<path class="st1" d="M0 787h105v55H0z"/>
<text class="st3" x="35" y="818" v:langID="1033">
<v:paragraph v:horizAlign="1"/>
<v:tabList/>
PartRef</text>
</g>
<path class="st4" transform="translate(530 -453)" d="m7 842v18" v:groupContext="shape" v:layerMember="0" v:mID="33"/>
</g>
</svg>
