<?xml version="1.0" standalone="no"?><!-- Generator: Gravit.io --><svg xmlns="http://www.w3.org/2000/svg" xmlns:xlink="http://www.w3.org/1999/xlink" style="isolation:isolate" viewBox="0 0 489.6 633.6" width="489.6" height="633.6"><defs><clipPath id="_clipPath_TdDFCmt33KKNua9ph5asUeZTwmy6uZMt"><rect width="489.6" height="633.6"/></clipPath></defs><g clip-path="url(#_clipPath_TdDFCmt33KKNua9ph5asUeZTwmy6uZMt)"><path d=" M 188.7 236.12 L 259.566 236.12 L 259.566 193.6 L 188.7 193.6 L 188.7 236.12 Z " fill-rule="evenodd" fill="rgb(255,255,255)"/><path d=" M 188.7 236.12 L 259.566 236.12 L 259.566 193.6 L 188.7 193.6 L 188.7 236.12 Z " fill="none" vector-effect="non-scaling-stroke" stroke-width="0.65" stroke="rgb(0,0,0)" stroke-linejoin="miter" stroke-linecap="square" stroke-miterlimit="3"/><g transform="matrix(0.488,0,0,0.488,213.48,206.78)"><text transform="matrix(1,0,0,1,0,17.102)" style="font-family:'Open Sans';font-weight:400;font-size:16px;font-style:normal;font-variant-ligatures:none;letter-spacing:0.9688294687500054;fill:[Object GRGBColor];stroke:none;">L</text><text transform="matrix(1,0,0,1,9.274,17.102)" style="font-family:'Open Sans';font-weight:400;font-size:16px;font-style:normal;font-variant-ligatures:none;letter-spacing:1.0243459687500027;fill:[Object GRGBColor];stroke:none;">X</text><text transform="matrix(1,0,0,1,19.532,17.102)" style="font-family:'Open Sans';font-weight:400;font-size:16px;font-style:normal;font-variant-ligatures:none;letter-spacing:0.8944905937499775;fill:[Object GRGBColor];stroke:none;">F</text><text transform="matrix(1,0,0,1,28.685,17.102)" style="font-family:'Open Sans';font-weight:400;font-size:16px;font-style:normal;font-variant-ligatures:none;letter-spacing:1.8971623125000008;fill:[Object GRGBColor];stroke:none;">M</text><text transform="matrix(1,0,0,1,45.027,17.102)" style="font-family:'Open Sans';font-weight:400;font-size:16px;font-style:normal;font-variant-ligatures:none;fill:[Object GRGBColor];stroke:none;">L</text></g><path d=" M 143.35 597.54 L 214.216 597.54 L 214.216 555.02 L 143.35 555.02 L 143.35 597.54 Z " fill-rule="evenodd" fill="rgb(255,255,255)"/><path d=" M 143.35 597.54 L 214.216 597.54 L 214.216 555.02 L 143.35 555.02 L 143.35 597.54 Z " fill="none" vector-effect="non-scaling-stroke" stroke-width="0.65" stroke="rgb(0,0,0)" stroke-linejoin="miter" stroke-linecap="square" stroke-miterlimit="3"/><g transform="matrix(0.488,0,0,0.488,158.901,572.066)"><text transform="matrix(1,0,0,1,0,17.102)" style="font-family:'Open Sans';font-weight:400;font-size:16px;font-style:normal;font-variant-ligatures:none;letter-spacing:1.2846270937499986;fill:[Object GRGBColor];stroke:none;">S</text><text transform="matrix(1,0,0,1,10.066,17.102)" style="font-family:'Open Sans';font-weight:400;font-size:16px;font-style:normal;font-variant-ligatures:none;letter-spacing:1.2021128437500084;fill:[Object GRGBColor];stroke:none;">u</text><text transform="matrix(1,0,0,1,21.088,17.102)" style="font-family:'Open Sans';font-weight:400;font-size:16px;font-style:normal;font-variant-ligatures:none;letter-spacing:1.624190343750012;fill:[Object GRGBColor];stroke:none;">b</text><text transform="matrix(1,0,0,1,32.517,17.102)" style="font-family:'Open Sans';font-weight:400;font-size:16px;font-style:normal;font-variant-ligatures:none;letter-spacing:1.1423185312499904;fill:[Object GRGBColor];stroke:none;">M</text><text transform="matrix(1,0,0,1,48.105,17.102)" style="font-family:'Open Sans';font-weight:400;font-size:16px;font-style:normal;font-variant-ligatures:none;letter-spacing:0.8800886249999958;fill:[Object GRGBColor];stroke:none;">a</text><text transform="matrix(1,0,0,1,57.883,17.102)" style="font-family:'Open Sans';font-weight:400;font-size:16px;font-style:normal;font-variant-ligatures:none;letter-spacing:0.9778604062499969;fill:[Object GRGBColor];stroke:none;">t</text><text transform="matrix(1,0,0,1,64.51,17.102)" style="font-family:'Open Sans';font-weight:400;font-size:16px;font-style:normal;font-variant-ligatures:none;letter-spacing:0.9865586249999971;fill:[Object GRGBColor];stroke:none;">e</text><text transform="matrix(1,0,0,1,74.473,17.102)" style="font-family:'Open Sans';font-weight:400;font-size:16px;font-style:normal;font-variant-ligatures:none;letter-spacing:0.5318271562499962;fill:[Object GRGBColor];stroke:none;">r</text><text transform="matrix(1,0,0,1,81.536,17.102)" style="font-family:'Open Sans';font-weight:400;font-size:16px;font-style:normal;font-variant-ligatures:none;letter-spacing:0.8915911875000099;fill:[Object GRGBColor];stroke:none;">i</text><text transform="matrix(1,0,0,1,86.474,17.102)" style="font-family:'Open Sans';font-weight:400;font-size:16px;font-style:normal;font-variant-ligatures:none;letter-spacing:0.7755198750000023;fill:[Object GRGBColor];stroke:none;">a</text><text transform="matrix(1,0,0,1,96.148,17.102)" style="font-family:'Open Sans';font-weight:400;font-size:16px;font-style:normal;font-variant-ligatures:none;fill:[Object GRGBColor];stroke:none;">l</text></g><path d=" M 242.68 386 L 313.546 386 L 313.546 343.48 L 242.68 343.48 L 242.68 386 Z " fill-rule="evenodd" fill="rgb(255,255,255)"/><path d=" M 242.68 386 L 313.546 386 L 313.546 343.48 L 242.68 343.48 L 242.68 386 Z " fill="none" vector-effect="non-scaling-stroke" stroke-width="0.65" stroke="rgb(0,0,0)" stroke-linejoin="miter" stroke-linecap="square" stroke-miterlimit="3"/><g transform="matrix(0.488,0,0,0.488,270.099,360.371)"><text transform="matrix(1,0,0,1,0,17.102)" style="font-family:'Open Sans';font-weight:400;font-size:16px;font-style:normal;font-variant-ligatures:none;letter-spacing:1.2582947812500023;fill:[Object GRGBColor];stroke:none;">M</text><text transform="matrix(1,0,0,1,15.704,17.102)" style="font-family:'Open Sans';font-weight:400;font-size:16px;font-style:normal;font-variant-ligatures:none;letter-spacing:1.2173228437500008;fill:[Object GRGBColor];stroke:none;">o</text><text transform="matrix(1,0,0,1,26.585,17.102)" style="font-family:'Open Sans';font-weight:400;font-size:16px;font-style:normal;font-variant-ligatures:none;letter-spacing:1.1127540937500071;fill:[Object GRGBColor];stroke:none;">d</text><text transform="matrix(1,0,0,1,37.502,17.102)" style="font-family:'Open Sans';font-weight:400;font-size:16px;font-style:normal;font-variant-ligatures:none;letter-spacing:0.7907298750000222;fill:[Object GRGBColor];stroke:none;">e</text><text transform="matrix(1,0,0,1,47.27,17.102)" style="font-family:'Open Sans';font-weight:400;font-size:16px;font-style:normal;font-variant-ligatures:none;fill:[Object GRGBColor];stroke:none;">l</text></g><path d=" M 242.68 314.08 L 313.546 314.08 L 313.546 271.56 L 242.68 271.56 L 242.68 314.08 Z " fill-rule="evenodd" fill="rgb(255,255,255)"/><path d=" M 242.68 314.08 L 313.546 314.08 L 313.546 271.56 L 242.68 271.56 L 242.68 314.08 Z " fill="none" vector-effect="non-scaling-stroke" stroke-width="0.65" stroke="rgb(0,0,0)" stroke-linejoin="miter" stroke-linecap="square" stroke-miterlimit="3"/><g transform="matrix(0.488,0,0,0.488,268.67,289.6)"><text transform="matrix(1,0,0,1,0,17.102)" style="font-family:'Open Sans';font-weight:400;font-size:16px;font-style:normal;font-variant-ligatures:none;letter-spacing:0.8799460312499817;fill:[Object GRGBColor];stroke:none;">S</text><text transform="matrix(1,0,0,1,9.661,17.102)" style="font-family:'Open Sans';font-weight:400;font-size:16px;font-style:normal;font-variant-ligatures:none;letter-spacing:0.9780980625000204;fill:[Object GRGBColor];stroke:none;">c</text><text transform="matrix(1,0,0,1,18.256,17.102)" style="font-family:'Open Sans';font-weight:400;font-size:16px;font-style:normal;font-variant-ligatures:none;letter-spacing:1.1095219687499926;fill:[Object GRGBColor];stroke:none;">e</text><text transform="matrix(1,0,0,1,28.343,17.102)" style="font-family:'Open Sans';font-weight:400;font-size:16px;font-style:normal;font-variant-ligatures:none;letter-spacing:1.0464955312500017;fill:[Object GRGBColor];stroke:none;">n</text><text transform="matrix(1,0,0,1,39.209,17.102)" style="font-family:'Open Sans';font-weight:400;font-size:16px;font-style:normal;font-variant-ligatures:none;fill:[Object GRGBColor];stroke:none;">e</text></g><path d=" M 241.85 597.54 L 312.716 597.54 L 312.716 555.02 L 241.85 555.02 L 241.85 597.54 Z " fill-rule="evenodd" fill="rgb(255,255,255)"/><path d=" M 241.85 597.54 L 312.716 597.54 L 312.716 555.02 L 241.85 555.02 L 241.85 597.54 Z " fill="none" vector-effect="non-scaling-stroke" stroke-width="0.65" stroke="rgb(0,0,0)" stroke-linejoin="miter" stroke-linecap="square" stroke-miterlimit="3"/><g transform="matrix(0.488,0,0,0.488,259.486,572.066)"><text transform="matrix(1,0,0,1,0,17.102)" style="font-family:'Open Sans';font-weight:400;font-size:16px;font-style:normal;font-variant-ligatures:none;letter-spacing:1.2777350625000246;fill:[Object GRGBColor];stroke:none;">D</text><text transform="matrix(1,0,0,1,12.942,17.102)" style="font-family:'Open Sans';font-weight:400;font-size:16px;font-style:normal;font-variant-ligatures:none;letter-spacing:1.0150773750000155;fill:[Object GRGBColor];stroke:none;">e</text><text transform="matrix(1,0,0,1,22.933,17.102)" style="font-family:'Open Sans';font-weight:400;font-size:16px;font-style:normal;font-variant-ligatures:none;letter-spacing:1.1196461249999814;fill:[Object GRGBColor];stroke:none;">c</text><text transform="matrix(1,0,0,1,31.67,17.102)" style="font-family:'Open Sans';font-weight:400;font-size:16px;font-style:normal;font-variant-ligatures:none;letter-spacing:1.072827843749998;fill:[Object GRGBColor];stroke:none;">o</text><text transform="matrix(1,0,0,1,42.407,17.102)" style="font-family:'Open Sans';font-weight:400;font-size:16px;font-style:normal;font-variant-ligatures:none;letter-spacing:1.060374656250015;fill:[Object GRGBColor];stroke:none;">r</text><text transform="matrix(1,0,0,1,49.999,17.102)" style="font-family:'Open Sans';font-weight:400;font-size:16px;font-style:normal;font-variant-ligatures:none;letter-spacing:0.5910986250000043;fill:[Object GRGBColor];stroke:none;">a</text><text transform="matrix(1,0,0,1,59.488,17.102)" style="font-family:'Open Sans';font-weight:400;font-size:16px;font-style:normal;font-variant-ligatures:none;letter-spacing:0.7383029062499836;fill:[Object GRGBColor];stroke:none;">t</text><text transform="matrix(1,0,0,1,65.875,17.102)" style="font-family:'Open Sans';font-weight:400;font-size:16px;font-style:normal;font-variant-ligatures:none;letter-spacing:0.9961599375000034;fill:[Object GRGBColor];stroke:none;">i</text><text transform="matrix(1,0,0,1,70.918,17.102)" style="font-family:'Open Sans';font-weight:400;font-size:16px;font-style:normal;font-variant-ligatures:none;letter-spacing:1.2021128437499946;fill:[Object GRGBColor];stroke:none;">o</text><text transform="matrix(1,0,0,1,81.784,17.102)" style="font-family:'Open Sans';font-weight:400;font-size:16px;font-style:normal;font-variant-ligatures:none;fill:[Object GRGBColor];stroke:none;">n</text></g><path d=" M 374.37 384.94 L 465.079 384.94 L 465.079 342.42 L 374.37 342.42 L 374.37 384.94 Z " fill="none" vector-effect="non-scaling-stroke" stroke-width="0.65" stroke="rgb(0,0,0)" stroke-linejoin="miter" stroke-linecap="square" stroke-miterlimit="3"/><g transform="matrix(0.488,0,0,0.488,377.312,360.53)"><text transform="matrix(1,0,0,1,0,17.102)" style="font-family:'Open Sans';font-weight:400;font-size:16px;font-style:normal;font-variant-ligatures:none;letter-spacing:1.3708963124999995;fill:[Object GRGBColor];stroke:none;">B</text><text transform="matrix(1,0,0,1,11.738,17.102)" style="font-family:'Open Sans';font-weight:400;font-size:16px;font-style:normal;font-variant-ligatures:none;letter-spacing:0.568996593750024;fill:[Object GRGBColor];stroke:none;">u</text><text transform="matrix(1,0,0,1,22.127,17.102)" style="font-family:'Open Sans';font-weight:400;font-size:16px;font-style:normal;font-variant-ligatures:none;letter-spacing:0.36304368750000504;fill:[Object GRGBColor];stroke:none;">i</text><text transform="matrix(1,0,0,1,26.537,17.102)" style="font-family:'Open Sans';font-weight:400;font-size:16px;font-style:normal;font-variant-ligatures:none;letter-spacing:1.2851499375000088;fill:[Object GRGBColor];stroke:none;">l</text><text transform="matrix(1,0,0,1,31.869,17.102)" style="font-family:'Open Sans';font-weight:400;font-size:16px;font-style:normal;font-variant-ligatures:none;letter-spacing:0.5689965937499962;fill:[Object GRGBColor];stroke:none;">d</text><text transform="matrix(1,0,0,1,42.243,17.102)" style="font-family:'Open Sans';font-weight:400;font-size:16px;font-style:normal;font-variant-ligatures:none;letter-spacing:1.285149937499981;fill:[Object GRGBColor];stroke:none;">i</text><text transform="matrix(1,0,0,1,47.575,17.102)" style="font-family:'Open Sans';font-weight:400;font-size:16px;font-style:normal;font-variant-ligatures:none;letter-spacing:1.2021128437500224;fill:[Object GRGBColor];stroke:none;">n</text><text transform="matrix(1,0,0,1,58.597,17.102)" style="font-family:'Open Sans';font-weight:400;font-size:16px;font-style:normal;font-variant-ligatures:none;letter-spacing:0.5689965937499962;fill:[Object GRGBColor];stroke:none;">g</text><text transform="matrix(1,0,0,1,67.932,17.102)" style="font-family:'Open Sans';font-weight:400;font-size:16px;font-style:normal;font-variant-ligatures:none;letter-spacing:1.285149937499981;fill:[Object GRGBColor];stroke:none;">I</text><text transform="matrix(1,0,0,1,73.678,17.102)" style="font-family:'Open Sans';font-weight:400;font-size:16px;font-style:normal;font-variant-ligatures:none;letter-spacing:1.097544093750001;fill:[Object GRGBColor];stroke:none;">n</text><text transform="matrix(1,0,0,1,84.596,17.102)" style="font-family:'Open Sans';font-weight:400;font-size:16px;font-style:normal;font-variant-ligatures:none;letter-spacing:0.8800886250000097;fill:[Object GRGBColor];stroke:none;">s</text><text transform="matrix(1,0,0,1,93.109,17.102)" style="font-family:'Open Sans';font-weight:400;font-size:16px;font-style:normal;font-variant-ligatures:none;letter-spacing:0.6603516562499869;fill:[Object GRGBColor];stroke:none;">t</text><text transform="matrix(1,0,0,1,99.418,17.102)" style="font-family:'Open Sans';font-weight:400;font-size:16px;font-style:normal;font-variant-ligatures:none;letter-spacing:1.1649434062500084;fill:[Object GRGBColor];stroke:none;">r</text><text transform="matrix(1,0,0,1,107.114,17.102)" style="font-family:'Open Sans';font-weight:400;font-size:16px;font-style:normal;font-variant-ligatures:none;letter-spacing:1.097544093750001;fill:[Object GRGBColor];stroke:none;">u</text><text transform="matrix(1,0,0,1,118.032,17.102)" style="font-family:'Open Sans';font-weight:400;font-size:16px;font-style:normal;font-variant-ligatures:none;letter-spacing:0.880088624999982;fill:[Object GRGBColor];stroke:none;">c</text><text transform="matrix(1,0,0,1,126.529,17.102)" style="font-family:'Open Sans';font-weight:400;font-size:16px;font-style:normal;font-variant-ligatures:none;letter-spacing:0.449312906250006;fill:[Object GRGBColor];stroke:none;">t</text><text transform="matrix(1,0,0,1,132.627,17.102)" style="font-family:'Open Sans';font-weight:400;font-size:16px;font-style:normal;font-variant-ligatures:none;letter-spacing:1.2851499375000088;fill:[Object GRGBColor];stroke:none;">i</text><text transform="matrix(1,0,0,1,137.959,17.102)" style="font-family:'Open Sans';font-weight:400;font-size:16px;font-style:normal;font-variant-ligatures:none;letter-spacing:1.2021128437499669;fill:[Object GRGBColor];stroke:none;">o</text><text transform="matrix(1,0,0,1,148.825,17.102)" style="font-family:'Open Sans';font-weight:400;font-size:16px;font-style:normal;font-variant-ligatures:none;fill:[Object GRGBColor];stroke:none;">n</text></g><path d=" M 374.37 313.72 L 465.079 313.72 L 465.079 271.2 L 374.37 271.2 L 374.37 313.72 Z " fill-rule="evenodd" fill="rgb(255,255,255)"/><path d=" M 374.37 313.72 L 465.079 313.72 L 465.079 271.2 L 374.37 271.2 L 374.37 313.72 Z " fill="none" vector-effect="non-scaling-stroke" stroke-width="0.65" stroke="rgb(0,0,0)" stroke-linejoin="miter" stroke-linecap="square" stroke-miterlimit="3"/><g transform="matrix(0.488,0,0,0.488,378.775,289.6)"><text transform="matrix(1,0,0,1,0,17.102)" style="font-family:'Open Sans';font-weight:400;font-size:16px;font-style:normal;font-variant-ligatures:none;letter-spacing:1.0058087812500005;fill:[Object GRGBColor];stroke:none;">B</text><text transform="matrix(1,0,0,1,11.373,17.102)" style="font-family:'Open Sans';font-weight:400;font-size:16px;font-style:normal;font-variant-ligatures:none;letter-spacing:1.3392880312499946;fill:[Object GRGBColor];stroke:none;">u</text><text transform="matrix(1,0,0,1,22.533,17.102)" style="font-family:'Open Sans';font-weight:400;font-size:16px;font-style:normal;font-variant-ligatures:none;letter-spacing:0.4223626874999901;fill:[Object GRGBColor];stroke:none;">il</text><text transform="matrix(1,0,0,1,31.471,17.102)" style="font-family:'Open Sans';font-weight:400;font-size:16px;font-style:normal;font-variant-ligatures:none;letter-spacing:1.0464955312500017;fill:[Object GRGBColor];stroke:none;">d</text><text transform="matrix(1,0,0,1,42.322,17.102)" style="font-family:'Open Sans';font-weight:400;font-size:16px;font-style:normal;font-variant-ligatures:none;letter-spacing:0.715155187500011;fill:[Object GRGBColor];stroke:none;">i</text><text transform="matrix(1,0,0,1,47.084,17.102)" style="font-family:'Open Sans';font-weight:400;font-size:16px;font-style:normal;font-variant-ligatures:none;letter-spacing:1.0464955312500017;fill:[Object GRGBColor];stroke:none;">n</text><text transform="matrix(1,0,0,1,57.951,17.102)" style="font-family:'Open Sans';font-weight:400;font-size:16px;font-style:normal;font-variant-ligatures:none;letter-spacing:0.8818948125000219;fill:[Object GRGBColor];stroke:none;">g</text><text transform="matrix(1,0,0,1,67.599,17.102)" style="font-family:'Open Sans';font-weight:400;font-size:16px;font-style:normal;font-variant-ligatures:none;letter-spacing:0.672424593749988;fill:[Object GRGBColor];stroke:none;">I</text><text transform="matrix(1,0,0,1,72.732,17.102)" style="font-family:'Open Sans';font-weight:400;font-size:16px;font-style:normal;font-variant-ligatures:none;letter-spacing:1.0464955312500017;fill:[Object GRGBColor];stroke:none;">n</text><text transform="matrix(1,0,0,1,83.599,17.102)" style="font-family:'Open Sans';font-weight:400;font-size:16px;font-style:normal;font-variant-ligatures:none;letter-spacing:0.7281312187500042;fill:[Object GRGBColor];stroke:none;">s</text><text transform="matrix(1,0,0,1,91.96,17.102)" style="font-family:'Open Sans';font-weight:400;font-size:16px;font-style:normal;font-variant-ligatures:none;letter-spacing:0.8169195937500184;fill:[Object GRGBColor];stroke:none;">t</text><text transform="matrix(1,0,0,1,98.425,17.102)" style="font-family:'Open Sans';font-weight:400;font-size:16px;font-style:normal;font-variant-ligatures:none;letter-spacing:0.5130998437499891;fill:[Object GRGBColor];stroke:none;">r</text><text transform="matrix(1,0,0,1,105.469,17.102)" style="font-family:'Open Sans';font-weight:400;font-size:16px;font-style:normal;font-variant-ligatures:none;letter-spacing:1.3392880312500224;fill:[Object GRGBColor];stroke:none;">u</text><text transform="matrix(1,0,0,1,116.629,17.102)" style="font-family:'Open Sans';font-weight:400;font-size:16px;font-style:normal;font-variant-ligatures:none;letter-spacing:0.689108062500015;fill:[Object GRGBColor];stroke:none;">c</text><text transform="matrix(1,0,0,1,124.935,17.102)" style="font-family:'Open Sans';font-weight:400;font-size:16px;font-style:normal;font-variant-ligatures:none;letter-spacing:0.8169195937500184;fill:[Object GRGBColor];stroke:none;">t</text><text transform="matrix(1,0,0,1,131.401,17.102)" style="font-family:'Open Sans';font-weight:400;font-size:16px;font-style:normal;font-variant-ligatures:none;letter-spacing:0.4223626874999901;fill:[Object GRGBColor];stroke:none;">i</text><text transform="matrix(1,0,0,1,135.87,17.102)" style="font-family:'Open Sans';font-weight:400;font-size:16px;font-style:normal;font-variant-ligatures:none;letter-spacing:1.048444312500014;fill:[Object GRGBColor];stroke:none;">o</text><text transform="matrix(1,0,0,1,146.582,17.102)" style="font-family:'Open Sans';font-weight:400;font-size:16px;font-style:normal;font-variant-ligatures:none;letter-spacing:1.046495531249974;fill:[Object GRGBColor];stroke:none;">n</text><text transform="matrix(1,0,0,1,157.449,17.102)" style="font-family:'Open Sans';font-weight:400;font-size:16px;font-style:normal;font-variant-ligatures:none;fill:[Object GRGBColor];stroke:none;">s</text></g><path d=" M 382.88 455.81 L 453.746 455.81 L 453.746 413.29 L 382.88 413.29 L 382.88 455.81 Z " fill-rule="evenodd" fill="rgb(255,255,255)"/><path d=" M 382.88 455.81 L 453.746 455.81 L 453.746 413.29 L 382.88 413.29 L 382.88 455.81 Z " fill="none" vector-effect="non-scaling-stroke" stroke-width="0.65" stroke="rgb(0,0,0)" stroke-linejoin="miter" stroke-linecap="square" stroke-miterlimit="3"/><g transform="matrix(0.489,0,0,0.489,412.69,430.198)"><text transform="matrix(1,0,0,1,0,17.102)" style="font-family:'Open Sans';font-weight:400;font-size:16px;font-style:normal;font-variant-ligatures:none;fill:[Object GRGBColor];stroke:none;">S</text><text transform="matrix(1,0,0,1,8.781,17.102)" style="font-family:'Open Sans';font-weight:400;font-size:16px;font-style:normal;font-variant-ligatures:none;letter-spacing:0.32720115234375086;fill:[Object GRGBColor];stroke:none;">t</text><text transform="matrix(1,0,0,1,14.757,17.102)" style="font-family:'Open Sans';font-weight:400;font-size:16px;font-style:normal;font-variant-ligatures:none;letter-spacing:0.3195473242187539;fill:[Object GRGBColor];stroke:none;">e</text><text transform="matrix(1,0,0,1,24.053,17.102)" style="font-family:'Open Sans';font-weight:400;font-size:16px;font-style:normal;font-variant-ligatures:none;fill:[Object GRGBColor];stroke:none;">p</text></g><path d=" M 127.76 313.72 L 198.626 313.72 L 198.626 271.2 L 127.76 271.2 L 127.76 313.72 Z " fill-rule="evenodd" fill="rgb(255,255,255)"/><path d=" M 127.76 313.72 L 198.626 313.72 L 198.626 271.2 L 127.76 271.2 L 127.76 313.72 Z " fill="none" vector-effect="non-scaling-stroke" stroke-width="0.65" stroke="rgb(0,0,0)" stroke-linejoin="miter" stroke-linecap="square" stroke-miterlimit="3"/><g transform="matrix(0.488,0,0,0.488,149.02,289.25)"><text transform="matrix(1,0,0,1,0,17.102)" style="font-family:'Open Sans';font-weight:400;font-size:16px;font-style:normal;font-variant-ligatures:none;letter-spacing:1.0613252812499978;fill:[Object GRGBColor];stroke:none;">C</text><text transform="matrix(1,0,0,1,11.155,17.102)" style="font-family:'Open Sans';font-weight:400;font-size:16px;font-style:normal;font-variant-ligatures:none;letter-spacing:1.126205437499992;fill:[Object GRGBColor];stroke:none;">a</text><text transform="matrix(1,0,0,1,21.18,17.102)" style="font-family:'Open Sans';font-weight:400;font-size:16px;font-style:normal;font-variant-ligatures:none;letter-spacing:1.4170491562500003;fill:[Object GRGBColor];stroke:none;">m</text><text transform="matrix(1,0,0,1,37.48,17.102)" style="font-family:'Open Sans';font-weight:400;font-size:16px;font-style:normal;font-variant-ligatures:none;letter-spacing:1.1095219687499926;fill:[Object GRGBColor];stroke:none;">e</text><text transform="matrix(1,0,0,1,47.566,17.102)" style="font-family:'Open Sans';font-weight:400;font-size:16px;font-style:normal;font-variant-ligatures:none;letter-spacing:0.8020898437500082;fill:[Object GRGBColor];stroke:none;">r</text><text transform="matrix(1,0,0,1,54.899,17.102)" style="font-family:'Open Sans';font-weight:400;font-size:16px;font-style:normal;font-variant-ligatures:none;letter-spacing:1.126205437500006;fill:[Object GRGBColor];stroke:none;">a</text><text transform="matrix(1,0,0,1,64.924,17.102)" style="font-family:'Open Sans';font-weight:400;font-size:16px;font-style:normal;font-variant-ligatures:none;fill:[Object GRGBColor];stroke:none;">s</text></g><line x1="419.73" y1="313.72" x2="419.73" y2="340.21" vector-effect="non-scaling-stroke" stroke-width="0.65" stroke="rgb(0,0,0)" stroke-linejoin="miter" stroke-linecap="square" stroke-miterlimit="3"/><path d=" M 422.49 339.66 L 419.73 342.42 L 416.97 339.66 L 422.49 339.66 Z " fill-rule="evenodd" fill="rgb(0,0,0)"/><path d=" M 278.12 386 L 278.12 399.61 L 227.68 399.61 L 227.68 408.46" fill="none" vector-effect="non-scaling-stroke" stroke-width="0.65" stroke="rgb(0,0,0)" stroke-linejoin="miter" stroke-linecap="square" stroke-miterlimit="3"/><path d=" M 230.44 407.77 L 227.68 413.29 L 224.92 407.77 L 230.44 407.77 Z " fill-rule="evenodd" fill="rgb(0,0,0)"/><path d=" M 224.14 236.12 L 224.14 248.17 L 278.12 248.17 L 278.12 266.73" fill="none" vector-effect="non-scaling-stroke" stroke-width="0.65" stroke="rgb(0,0,0)" stroke-linejoin="miter" stroke-linecap="square" stroke-miterlimit="3"/><path d=" M 280.88 266.04 L 278.12 271.56 L 275.36 266.04 L 280.88 266.04 Z " fill-rule="evenodd" fill="rgb(0,0,0)"/><line x1="278.12" y1="314.08" x2="278.12" y2="338.66" vector-effect="non-scaling-stroke" stroke-width="0.65" stroke="rgb(0,0,0)" stroke-linejoin="miter" stroke-linecap="square" stroke-miterlimit="3"/><path d=" M 280.88 337.97 L 278.12 343.49 L 275.36 337.97 L 280.88 337.97 Z " fill-rule="evenodd" fill="rgb(0,0,0)"/><path d=" M 227.68 526.67 L 227.68 541.202 L 178.78 541.202 L 178.78 550.19" fill="none" vector-effect="non-scaling-stroke" stroke-width="0.65" stroke="rgb(0,0,0)" stroke-linejoin="miter" stroke-linecap="square" stroke-miterlimit="3"/><path d=" M 181.54 549.5 L 178.78 555.02 L 176.02 549.5 L 181.54 549.5 Z " fill-rule="evenodd" fill="rgb(0,0,0)"/><path d=" M 227.68 526.67 L 227.68 541.202 L 277.29 541.202 L 277.29 550.19" fill="none" vector-effect="non-scaling-stroke" stroke-width="0.65" stroke="rgb(0,0,0)" stroke-linejoin="miter" stroke-linecap="square" stroke-miterlimit="3"/><path d=" M 280.05 549.5 L 277.29 555.02 L 274.53 549.5 L 280.05 549.5 Z " fill-rule="evenodd" fill="rgb(0,0,0)"/><path d=" M 224.14 236.12 L 224.14 248.17 L 419.73 248.17 L 419.73 266.37" fill="none" vector-effect="non-scaling-stroke" stroke-width="0.65" stroke="rgb(0,0,0)" stroke-linejoin="miter" stroke-linecap="square" stroke-miterlimit="3"/><path d=" M 422.49 265.68 L 419.73 271.2 L 416.97 265.68 L 422.49 265.68 Z " fill-rule="evenodd" fill="rgb(0,0,0)"/><line x1="418.31" y1="384.94" x2="418.31" y2="408.46" vector-effect="non-scaling-stroke" stroke-width="0.65" stroke="rgb(0,0,0)" stroke-linejoin="miter" stroke-linecap="square" stroke-miterlimit="3"/><path d=" M 421.07 407.77 L 418.31 413.29 L 415.55 407.77 L 421.07 407.77 Z " fill-rule="evenodd" fill="rgb(0,0,0)"/><line x1="418.31" y1="455.81" x2="418.31" y2="479.32" vector-effect="non-scaling-stroke" stroke-width="0.65" stroke="rgb(0,0,0)" stroke-linejoin="miter" stroke-linecap="square" stroke-miterlimit="3"/><path d=" M 421.07 478.63 L 418.31 484.15 L 415.55 478.63 L 421.07 478.63 Z " fill-rule="evenodd" fill="rgb(0,0,0)"/><path d=" M 127.76 384.94 L 198.626 384.94 L 198.626 342.42 L 127.76 342.42 L 127.76 384.94 Z " fill-rule="evenodd" fill="rgb(255,255,255)"/><path d=" M 127.76 384.94 L 198.626 384.94 L 198.626 342.42 L 127.76 342.42 L 127.76 384.94 Z " fill="none" vector-effect="non-scaling-stroke" stroke-width="0.65" stroke="rgb(0,0,0)" stroke-linejoin="miter" stroke-linecap="square" stroke-miterlimit="3"/><g transform="matrix(0.488,0,0,0.488,150.63,360.53)"><text transform="matrix(1,0,0,1,0,17.102)" style="font-family:'Open Sans';font-weight:400;font-size:16px;font-style:normal;font-variant-ligatures:none;letter-spacing:1.0613252812499978;fill:[Object GRGBColor];stroke:none;">C</text><text transform="matrix(1,0,0,1,11.155,17.102)" style="font-family:'Open Sans';font-weight:400;font-size:16px;font-style:normal;font-variant-ligatures:none;letter-spacing:1.126205437499992;fill:[Object GRGBColor];stroke:none;">a</text><text transform="matrix(1,0,0,1,21.18,17.102)" style="font-family:'Open Sans';font-weight:400;font-size:16px;font-style:normal;font-variant-ligatures:none;letter-spacing:1.4170491562500003;fill:[Object GRGBColor];stroke:none;">m</text><text transform="matrix(1,0,0,1,37.48,17.102)" style="font-family:'Open Sans';font-weight:400;font-size:16px;font-style:normal;font-variant-ligatures:none;letter-spacing:1.1095219687499926;fill:[Object GRGBColor];stroke:none;">e</text><text transform="matrix(1,0,0,1,47.566,17.102)" style="font-family:'Open Sans';font-weight:400;font-size:16px;font-style:normal;font-variant-ligatures:none;letter-spacing:0.8020898437500082;fill:[Object GRGBColor];stroke:none;">r</text><text transform="matrix(1,0,0,1,54.899,17.102)" style="font-family:'Open Sans';font-weight:400;font-size:16px;font-style:normal;font-variant-ligatures:none;fill:[Object GRGBColor];stroke:none;">a</text></g><line x1="63.98" y1="313.72" x2="63.98" y2="337.59" vector-effect="non-scaling-stroke" stroke-width="0.65" stroke="rgb(0,0,0)" stroke-linejoin="miter" stroke-linecap="square" stroke-miterlimit="3"/><path d=" M 66.74 336.9 L 63.98 342.42 L 61.22 336.9 L 66.74 336.9 Z " fill-rule="evenodd" fill="rgb(0,0,0)"/><path d=" M 28.546 313.72 L 99.412 313.72 L 99.412 271.2 L 28.546 271.2 L 28.546 313.72 Z " fill-rule="evenodd" fill="rgb(255,255,255)"/><path d=" M 28.546 313.72 L 99.412 313.72 L 99.412 271.2 L 28.546 271.2 L 28.546 313.72 Z " fill="none" vector-effect="non-scaling-stroke" stroke-width="0.65" stroke="rgb(0,0,0)" stroke-linejoin="miter" stroke-linecap="square" stroke-miterlimit="3"/><g transform="matrix(0.488,0,0,0.488,55.2,289.25)"><text transform="matrix(1,0,0,1,0,17.102)" style="font-family:'Open Sans';font-weight:400;font-size:16px;font-style:normal;font-variant-ligatures:none;letter-spacing:1.885754812499996;fill:[Object GRGBColor];stroke:none;">M</text><text transform="matrix(1,0,0,1,16.331,17.102)" style="font-family:'Open Sans';font-weight:400;font-size:16px;font-style:normal;font-variant-ligatures:none;letter-spacing:0.8243344687499957;fill:[Object GRGBColor];stroke:none;">e</text><text transform="matrix(1,0,0,1,26.132,17.102)" style="font-family:'Open Sans';font-weight:400;font-size:16px;font-style:normal;font-variant-ligatures:none;letter-spacing:0.8169195937499977;fill:[Object GRGBColor];stroke:none;">t</text><text transform="matrix(1,0,0,1,32.597,17.102)" style="font-family:'Open Sans';font-weight:400;font-size:16px;font-style:normal;font-variant-ligatures:none;fill:[Object GRGBColor];stroke:none;">a</text></g><path d=" M 28.546 384.94 L 99.412 384.94 L 99.412 342.42 L 28.546 342.42 L 28.546 384.94 Z " fill-rule="evenodd" fill="rgb(255,255,255)"/><path d=" M 28.546 384.94 L 99.412 384.94 L 99.412 342.42 L 28.546 342.42 L 28.546 384.94 Z " fill="none" vector-effect="non-scaling-stroke" stroke-width="0.65" stroke="rgb(0,0,0)" stroke-linejoin="miter" stroke-linecap="square" stroke-miterlimit="3"/><g transform="matrix(0.488,0,0,0.488,53.9,360.53)"><text transform="matrix(1,0,0,1,0,17.102)" style="font-family:'Open Sans';font-weight:400;font-size:16px;font-style:normal;font-variant-ligatures:none;letter-spacing:1.9394424999999842;fill:[Object GRGBColor];stroke:none;">?</text><text transform="matrix(1,0,0,1,8.807,17.102)" style="font-family:'Open Sans';font-weight:400;font-size:16px;font-style:normal;font-variant-ligatures:none;letter-spacing:1.2265914375000018;fill:[Object GRGBColor];stroke:none;">A</text><text transform="matrix(1,0,0,1,20.158,17.102)" style="font-family:'Open Sans';font-weight:400;font-size:16px;font-style:normal;font-variant-ligatures:none;letter-spacing:1.0617055312500008;fill:[Object GRGBColor];stroke:none;">n</text><text transform="matrix(1,0,0,1,31.04,17.102)" style="font-family:'Open Sans';font-weight:400;font-size:16px;font-style:normal;font-variant-ligatures:none;letter-spacing:2.107415000000003;fill:[Object GRGBColor];stroke:none;">y</text><text transform="matrix(1,0,0,1,41.21,17.102)" style="font-family:'Open Sans';font-weight:400;font-size:16px;font-style:normal;font-variant-ligatures:none;fill:[Object GRGBColor];stroke:none;">?</text></g><path d=" M 224.14 236.12 L 224.14 248.17 L 63.98 248.17 L 63.98 266.37" fill="none" vector-effect="non-scaling-stroke" stroke-width="0.65" stroke="rgb(0,0,0)" stroke-linejoin="miter" stroke-linecap="square" stroke-miterlimit="3"/><path d=" M 66.74 265.68 L 63.98 271.2 L 61.22 265.68 L 66.74 265.68 Z " fill-rule="evenodd" fill="rgb(0,0,0)"/><line x1="163.19" y1="313.72" x2="163.19" y2="337.59" vector-effect="non-scaling-stroke" stroke-width="0.65" stroke="rgb(0,0,0)" stroke-linejoin="miter" stroke-linecap="square" stroke-miterlimit="3"/><path d=" M 165.95 336.9 L 163.19 342.42 L 160.43 336.9 L 165.95 336.9 Z " fill-rule="evenodd" fill="rgb(0,0,0)"/><path d=" M 192.25 455.81 L 263.116 455.81 L 263.116 413.29 L 192.25 413.29 L 192.25 455.81 Z " fill-rule="evenodd" fill="rgb(255,255,255)"/><path d=" M 192.25 455.81 L 263.116 455.81 L 263.116 413.29 L 192.25 413.29 L 192.25 455.81 Z " fill="none" vector-effect="non-scaling-stroke" stroke-width="0.65" stroke="rgb(0,0,0)" stroke-linejoin="miter" stroke-linecap="square" stroke-miterlimit="3"/><g transform="matrix(0.489,0,0,0.489,218.964,430.198)"><text transform="matrix(1,0,0,1,0,17.102)" style="font-family:'Open Sans';font-weight:400;font-size:16px;font-style:normal;font-variant-ligatures:none;fill:[Object GRGBColor];stroke:none;">G</text><text transform="matrix(1,0,0,1,11.648,17.102)" style="font-family:'Open Sans';font-weight:400;font-size:16px;font-style:normal;font-variant-ligatures:none;letter-spacing:0.6926714453125141;fill:[Object GRGBColor];stroke:none;">r</text><text transform="matrix(1,0,0,1,18.872,17.102)" style="font-family:'Open Sans';font-weight:400;font-size:16px;font-style:normal;font-variant-ligatures:none;fill:[Object GRGBColor];stroke:none;">o</text><text transform="matrix(1,0,0,1,28.536,17.102)" style="font-family:'Open Sans';font-weight:400;font-size:16px;font-style:normal;font-variant-ligatures:none;letter-spacing:0.015307656250021662;fill:[Object GRGBColor];stroke:none;">u</text><text transform="matrix(1,0,0,1,38.372,17.102)" style="font-family:'Open Sans';font-weight:400;font-size:16px;font-style:normal;font-variant-ligatures:none;fill:[Object GRGBColor];stroke:none;">p</text></g><path d=" M 292.17 456.16 L 363.036 456.16 L 363.036 413.64 L 292.17 413.64 L 292.17 456.16 Z " fill-rule="evenodd" fill="rgb(255,255,255)"/><path d=" M 292.17 456.16 L 363.036 456.16 L 363.036 413.64 L 292.17 413.64 L 292.17 456.16 Z " fill="none" vector-effect="non-scaling-stroke" stroke-width="0.65" stroke="rgb(0,0,0)" stroke-linejoin="miter" stroke-linecap="square" stroke-miterlimit="3"/><g transform="matrix(0.488,0,0,0.488,320.568,430.591)"><text transform="matrix(1,0,0,1,1.25,17.102)" style="font-family:'Open Sans';font-weight:400;font-size:16px;font-style:normal;font-variant-ligatures:none;letter-spacing:1.1196461249999814;fill:[Object GRGBColor];stroke:none;">J</text><text transform="matrix(1,0,0,1,6.643,17.102)" style="font-family:'Open Sans';font-weight:400;font-size:16px;font-style:normal;font-variant-ligatures:none;letter-spacing:0.8617890937499894;fill:[Object GRGBColor];stroke:none;">o</text><text transform="matrix(1,0,0,1,17.169,17.102)" style="font-family:'Open Sans';font-weight:400;font-size:16px;font-style:normal;font-variant-ligatures:none;letter-spacing:0.9961599375000034;fill:[Object GRGBColor];stroke:none;">i</text><text transform="matrix(1,0,0,1,22.212,17.102)" style="font-family:'Open Sans';font-weight:400;font-size:16px;font-style:normal;font-variant-ligatures:none;letter-spacing:0.6735653437500175;fill:[Object GRGBColor];stroke:none;">n</text><text transform="matrix(1,0,0,1,32.706,17.102)" style="font-family:'Open Sans';font-weight:400;font-size:16px;font-style:normal;font-variant-ligatures:none;fill:[Object GRGBColor];stroke:none;">t</text></g><path d=" M 278.12 386 L 278.12 399.61 L 327.6 399.61 L 327.6 408.81" fill="none" vector-effect="non-scaling-stroke" stroke-width="0.65" stroke="rgb(0,0,0)" stroke-linejoin="miter" stroke-linecap="square" stroke-miterlimit="3"/><path d=" M 330.36 408.12 L 327.6 413.64 L 324.84 408.12 L 330.36 408.12 Z " fill-rule="evenodd" fill="rgb(0,0,0)"/><path d=" M 192.25 526.67 L 263.116 526.67 L 263.116 484.15 L 192.25 484.15 L 192.25 526.67 Z " fill-rule="evenodd" fill="rgb(255,255,255)"/><path d=" M 192.25 526.67 L 263.116 526.67 L 263.116 484.15 L 192.25 484.15 L 192.25 526.67 Z " fill="none" vector-effect="non-scaling-stroke" stroke-width="0.65" stroke="rgb(0,0,0)" stroke-linejoin="miter" stroke-linecap="square" stroke-miterlimit="3"/><g transform="matrix(0.488,0,0,0.488,222.751,501.141)"><text transform="matrix(1,0,0,1,0,17.102)" style="font-family:'Open Sans';font-weight:400;font-size:16px;font-style:normal;font-variant-ligatures:none;letter-spacing:1.1800583437500052;fill:[Object GRGBColor];stroke:none;">P</text><text transform="matrix(1,0,0,1,10.813,17.102)" style="font-family:'Open Sans';font-weight:400;font-size:16px;font-style:normal;font-variant-ligatures:none;letter-spacing:0.6975686249999917;fill:[Object GRGBColor];stroke:none;">a</text><text transform="matrix(1,0,0,1,20.409,17.102)" style="font-family:'Open Sans';font-weight:400;font-size:16px;font-style:normal;font-variant-ligatures:none;letter-spacing:0.6363959062500036;fill:[Object GRGBColor];stroke:none;">r</text><text transform="matrix(1,0,0,1,27.577,17.102)" style="font-family:'Open Sans';font-weight:400;font-size:16px;font-style:normal;font-variant-ligatures:none;fill:[Object GRGBColor];stroke:none;">t</text></g><line x1="227.68" y1="455.81" x2="227.68" y2="479.32" vector-effect="non-scaling-stroke" stroke-width="0.65" stroke="rgb(0,0,0)" stroke-linejoin="miter" stroke-linecap="square" stroke-miterlimit="3"/><path d=" M 230.44 478.63 L 227.68 484.15 L 224.92 478.63 L 230.44 478.63 Z " fill-rule="evenodd" fill="rgb(0,0,0)"/><path d=" M 382.88 526.67 L 453.746 526.67 L 453.746 484.15 L 382.88 484.15 L 382.88 526.67 Z " fill-rule="evenodd" fill="rgb(255,255,255)"/><path d=" M 382.88 526.67 L 453.746 526.67 L 453.746 484.15 L 382.88 484.15 L 382.88 526.67 Z " fill="none" vector-effect="non-scaling-stroke" stroke-width="0.65" stroke="rgb(0,0,0)" stroke-linejoin="miter" stroke-linecap="square" stroke-miterlimit="3"/><g transform="matrix(0.488,0,0,0.488,405.671,501.141)"><text transform="matrix(1,0,0,1,0,17.102)" style="font-family:'Open Sans';font-weight:400;font-size:16px;font-style:normal;font-variant-ligatures:none;letter-spacing:1.1800583437500052;fill:[Object GRGBColor];stroke:none;">P</text><text transform="matrix(1,0,0,1,10.813,17.102)" style="font-family:'Open Sans';font-weight:400;font-size:16px;font-style:normal;font-variant-ligatures:none;letter-spacing:0.6975686249999917;fill:[Object GRGBColor];stroke:none;">a</text><text transform="matrix(1,0,0,1,20.409,17.102)" style="font-family:'Open Sans';font-weight:400;font-size:16px;font-style:normal;font-variant-ligatures:none;letter-spacing:0.6363959062500036;fill:[Object GRGBColor];stroke:none;">r</text><text transform="matrix(1,0,0,1,27.577,17.102)" style="font-family:'Open Sans';font-weight:400;font-size:16px;font-style:normal;font-variant-ligatures:none;letter-spacing:1.5824579062499906;fill:[Object GRGBColor];stroke:none;">t</text><text transform="matrix(1,0,0,1,34.807,17.102)" style="font-family:'Open Sans';font-weight:400;font-size:16px;font-style:normal;font-variant-ligatures:none;letter-spacing:1.266327562500006;fill:[Object GRGBColor];stroke:none;">R</text><text transform="matrix(1,0,0,1,45.964,17.102)" style="font-family:'Open Sans';font-weight:400;font-size:16px;font-style:normal;font-variant-ligatures:none;letter-spacing:0.5910986250000043;fill:[Object GRGBColor];stroke:none;">e</text><text transform="matrix(1,0,0,1,55.532,17.102)" style="font-family:'Open Sans';font-weight:400;font-size:16px;font-style:normal;font-variant-ligatures:none;fill:[Object GRGBColor];stroke:none;">f</text></g><path d=" M 224.14 236.12 L 224.14 248.17 L 163.19 248.17 L 163.19 266.37" fill="none" vector-effect="non-scaling-stroke" stroke-width="0.65" stroke="rgb(0,0,0)" stroke-linejoin="miter" stroke-linecap="square" stroke-miterlimit="3"/><path d=" M 165.95 265.68 L 163.19 271.2 L 160.43 265.68 L 165.95 265.68 Z " fill-rule="evenodd" fill="rgb(0,0,0)"/></g></svg>