<?xml version="1.0" encoding="UTF-8" standalone="no"?>
<!DOCTYPE svg PUBLIC "-//W3C//DTD SVG 1.1//EN" "http://www.w3.org/Graphics/SVG/1.1/DTD/svg11.dtd">
<svg width="100%" height="100%" viewBox="0 0 256 256" version="1.1" xmlns="http://www.w3.org/2000/svg" xmlns:xlink="http://www.w3.org/1999/xlink" xml:space="preserve" xmlns:serif="http://www.serif.com/" style="fill-rule:evenodd;clip-rule:evenodd;stroke-linejoin:round;stroke-miterlimit:2;">
    <g id="q" transform="matrix(0.726429,0,0,0.726429,128,107.163)">
        <path d="M-20.05,34.7C-7.664,41.875 7.664,41.875 20.05,34.7L66.85,115.8C25.756,140.439 -25.756,140.439 -66.85,115.8L-20.05,34.7Z" style="fill-rule:nonzero;"/>
    </g>
    <g id="q1" serif:id="q" transform="matrix(-0.363215,0.629106,-0.629106,-0.363215,128,107.163)">
        <path d="M-20.05,34.7C-7.664,41.875 7.664,41.875 20.05,34.7L66.85,115.8C25.756,140.439 -25.756,140.439 -66.85,115.8L-20.05,34.7Z" style="fill-rule:nonzero;"/>
    </g>
    <g id="q2" serif:id="q" transform="matrix(-0.363215,-0.629106,0.629106,-0.363215,128,107.163)">
        <path d="M-20.05,34.7C-7.664,41.875 7.664,41.875 20.05,34.7L66.85,115.8C25.756,140.439 -25.756,140.439 -66.85,115.8L-20.05,34.7Z" style="fill-rule:nonzero;"/>
    </g>
    <g transform="matrix(0.726429,0,0,0.726429,128,107.163)">
        <circle cx="0" cy="0" r="26.7"/>
    </g>
</svg>
